<svg width="441" height="97" viewBox="0 0 441 97" xmlns="http://www.w3.org/2000/svg"><g fill-rule="nonzero" fill="none"><rect fill="#EF7622" width="96" height="97" rx="12.24"/><g fill="#FFF"><path d="M10.77 83.5V20.15c2.36-.62 4.59-1.65 6.59-3.05v59.8h.41c1.187 0 2.37-.126 3.53-.38 2.62-.56 5.175-1.394 7.62-2.49 1.24-.54 2.45-1.13 3.67-1.71 1.794-.896 3.73-1.474 5.72-1.71 2.092-.274 4.22.02 6.16.85.853.365 1.624.895 2.27 1.56.546.552.93 1.244 1.11 2 0 .06 0 .11.06.2.06.09.05-.07.05-.09.168-.806.572-1.544 1.16-2.12.884-.885 1.973-1.537 3.17-1.9 1.426-.458 2.925-.644 4.42-.55 2.242.132 4.434.72 6.44 1.73 2 1 4 1.89 6 2.66 2.013.777 4.096 1.36 6.22 1.74.887.16 1.788.238 2.69.23h.33v-.1-.07-.21-59.2c-.002-.023-.002-.047 0-.07v-.07c2.03 1.3 4.264 2.247 6.61 2.8v63.5H10.77z"/><path d="M24.83 32.7c-.53-5.223-.474-10.49.17-15.7l.41.2c1.523.802 3.158 1.372 4.85 1.69 3.047.56 6.195.052 8.91-1.44 1.873-1.024 3.562-2.352 5-3.93 1.37-1.464 2.562-3.085 3.55-4.83l.12-.19.21.35c1.47 2.568 3.396 4.848 5.68 6.73 1.838 1.548 4.012 2.644 6.35 3.2 2.434.534 4.968.396 7.33-.4 1.002-.325 1.976-.733 2.91-1.22l.25-.13h.12c.63 5.165.684 10.383.16 15.56H24.84M35.7 60.37c-2.042-2.708-3.804-5.616-5.26-8.68l17.42-17.43 17.37 17.4c-1.433 3.076-3.197 5.986-5.26 8.68l-6.05-6-6.07-6.07-12.15 12.1"/></g><path d="M118.7 28.26h-3V3.93h8.63c2.667 0 4.667.733 6 2.2 1.24 1.37 1.926 3.152 1.92 5 .055 1.945-.702 3.826-2.09 5.19-1.482 1.38-3.458 2.1-5.48 2h-5.9l-.08 9.94zm0-12.4h5.6c1.287.06 2.543-.406 3.48-1.29.896-.903 1.375-2.14 1.32-3.41.003-1.186-.415-2.334-1.18-3.24-.85-.98-2.106-1.51-3.4-1.43h-5.82v9.37zM139.85 28.26h-2.8v-18h2.46v4.21c.516-1.493 1.416-2.825 2.61-3.86.784-.558 1.718-.865 2.68-.88.368.005.735.028 1.1.07v2.67h-.57c-1.478-.03-2.89.605-3.85 1.73-1.068 1.27-1.65 2.88-1.64 4.54l.01 9.52zM153.21 3.93V7h-3V3.88l3 .05zm-.09 6.33v18h-2.8v-18h2.8zM174.13 28.26h-2.62V16.69c.132-1.27-.262-2.538-1.09-3.51-.714-.667-1.663-1.026-2.64-1-1.396-.014-2.72.617-3.59 1.71-1.014 1.278-1.53 2.88-1.45 4.51v9.87h-2.8v-18h2.6v3.31c1.46-2.54 3.357-3.81 5.69-3.81 1.222-.048 2.426.303 3.43 1 .852.584 1.524 1.394 1.94 2.34.438 1.53.618 3.12.53 4.71v10.44zM191.6 21.95l2.53.45c-.248 1.777-1.082 3.42-2.37 4.67-1.487 1.25-3.42 1.844-5.352 1.642-1.933-.202-3.7-1.18-4.898-2.712-1.36-1.968-2.06-4.318-2-6.71-.09-2.44.636-4.838 2.06-6.82 1.304-1.78 3.405-2.8 5.61-2.72 1.744-.08 3.445.556 4.71 1.76 1.212 1.23 1.985 2.826 2.2 4.54l-2.53.48c-.473-2.973-1.907-4.46-4.3-4.46-1.463-.035-2.83.732-3.56 2-.893 1.55-1.327 3.323-1.25 5.11-.105 1.87.325 3.734 1.24 5.37.724 1.226 2.057 1.96 3.48 1.92 2.34-.02 3.817-1.527 4.43-4.52zM211.09 22.89l2.6.53c-.48 1.546-1.457 2.89-2.78 3.82-1.415 1.02-3.125 1.55-4.87 1.51-2.29.086-4.497-.87-6-2.6-3.073-4.08-3.036-9.71.09-13.75 1.5-1.74 3.704-2.712 6-2.65 2.164-.084 4.25.813 5.68 2.44 1.433 1.627 2.167 4.063 2.2 7.31h-13.09c0 2.72.57 4.557 1.71 5.51.995.896 2.28 1.404 3.62 1.43 2.293 0 3.907-1.183 4.84-3.55zm-.16-5.47c-.007-.92-.177-1.83-.5-2.69-.325-.8-.87-1.494-1.57-2-.77-.564-1.706-.856-2.66-.83-1.34-.022-2.625.522-3.54 1.5-1.006 1.094-1.585 2.514-1.63 4l9.9.02zM227.43 26.35v2.21c-.85.122-1.71.19-2.57.2-3.48 0-5.22-1.82-5.22-5.46V12.45h-3.19v-2.19h3.19l.13-4.53 2.6-.25v4.78h4v2.19h-4v11.31c0 1.853.963 2.78 2.89 2.78.727-.006 1.453-.07 2.17-.19zM237.63 28.76c-2.263.097-4.428-.933-5.78-2.75-1.43-1.977-2.16-4.372-2.08-6.81-.13-2.503.705-4.96 2.33-6.87 1.463-1.672 3.59-2.612 5.81-2.57 2.277-.094 4.46.91 5.87 2.7 1.476 1.933 2.236 4.32 2.15 6.75.105 2.5-.72 4.953-2.32 6.88-1.484 1.752-3.685 2.734-5.98 2.67zm.21-2.32c1.404.01 2.73-.64 3.58-1.76.96-1.18 1.44-3.01 1.44-5.49 0-2.48-.507-4.29-1.52-5.43-.875-1.06-2.176-1.674-3.55-1.68-1.376-.008-2.68.62-3.53 1.7-.96 1.133-1.443 2.93-1.45 5.39 0 2.6.483 4.463 1.45 5.59.873 1.084 2.198 1.704 3.59 1.68h-.01zM265.57 28.26H263V16.69c.132-1.27-.262-2.538-1.09-3.51-.714-.667-1.663-1.026-2.64-1-1.397-.015-2.722.616-3.59 1.71-1.014 1.278-1.53 2.88-1.45 4.51v9.87h-2.8v-18H254v3.31c1.46-2.54 3.357-3.81 5.69-3.81 1.222-.048 2.426.303 3.43 1 .852.584 1.524 1.394 1.94 2.34.438 1.53.617 3.12.53 4.71l-.02 10.44zM296.89 3.93h2.53v15.89c0 3.187-.78 5.473-2.34 6.86-1.713 1.44-3.905 2.182-6.14 2.08-2.813 0-4.9-.713-6.26-2.14-1.36-1.427-2.027-3.693-2-6.8V3.93h3v15.89c-.1 1.367.126 2.738.66 4 .45.783 1.157 1.387 2 1.71.888.367 1.84.554 2.8.55 1.57.113 3.116-.422 4.28-1.48.973-.987 1.46-2.58 1.46-4.78l.01-15.89zM320.14 28.26h-2.62V16.69c.132-1.27-.262-2.538-1.09-3.51-.714-.667-1.663-1.026-2.64-1-1.397-.015-2.722.616-3.59 1.71-1.014 1.278-1.53 2.88-1.45 4.51v9.87H306v-18h2.6v3.31c1.46-2.54 3.357-3.81 5.69-3.81 1.222-.048 2.426.303 3.43 1 .852.584 1.524 1.394 1.94 2.34.438 1.53.617 3.12.53 4.71l-.05 10.44zM329.87 3.93V7h-3V3.88l3 .05zm-.09 6.33v18H327v-18h2.78zM349.79 10.26l-6.22 18h-2.88l-6.45-18h3.11l5 14.63 5-14.63M365.61 22.89l2.6.53c-.48 1.546-1.457 2.89-2.78 3.82-1.415 1.02-3.125 1.55-4.87 1.51-2.29.086-4.497-.87-6-2.6-3.073-4.08-3.036-9.71.09-13.75 1.5-1.74 3.704-2.712 6-2.65 2.164-.084 4.25.813 5.68 2.44 1.433 1.627 2.167 4.063 2.2 7.31h-13.1c0 2.72.57 4.557 1.71 5.51.995.896 2.28 1.404 3.62 1.43 2.293 0 3.91-1.183 4.85-3.55zm-.16-5.47c-.007-.92-.176-1.83-.5-2.69-.326-.8-.87-1.494-1.57-2-.77-.564-1.706-.855-2.66-.83-1.34-.022-2.625.522-3.54 1.5-1.006 1.094-1.585 2.514-1.63 4l9.9.02zM376.76 28.26H374v-18h2.46v4.21c.516-1.493 1.416-2.825 2.61-3.86.784-.558 1.718-.865 2.68-.88.29 0 .65 0 1.11.07v2.67h-.57c-1.478-.03-2.89.605-3.85 1.73-1.068 1.27-1.65 2.88-1.64 4.54l-.04 9.52zM385 23.59l2.67-.55c.593 2.267 2.47 3.4 5.63 3.4 1.055.042 2.1-.23 3-.78.774-.463 1.237-1.31 1.21-2.21 0-1.413-1.027-2.31-3.08-2.69l-3.79-.72c-1.32-.206-2.553-.79-3.55-1.68-.892-.86-1.373-2.062-1.32-3.3-.02-1.474.646-2.874 1.8-3.79 1.38-1.075 3.103-1.615 4.85-1.52 3.907 0 6.317 1.527 7.23 4.58l-2.57.55c-.733-1.88-2.247-2.82-4.54-2.82-.985-.043-1.96.2-2.81.7-.71.41-1.133 1.18-1.1 2 0 1.333.933 2.17 2.8 2.51l3.51.63c3.673.667 5.51 2.447 5.51 5.34.038 1.583-.71 3.08-2 4-1.605 1.09-3.522 1.627-5.46 1.53-4.3-.007-6.963-1.733-7.99-5.18zM408.5 3.93V7h-3V3.88l3 .05zm-.09 6.33v18h-2.8v-18h2.8zM423.4 26.35v2.21c-.85.122-1.71.19-2.57.2-3.48 0-5.22-1.82-5.22-5.46V12.45h-3.19v-2.19h3.19l.13-4.53 2.6-.25v4.78h4v2.19h-4v11.31c0 1.853.963 2.78 2.89 2.78.727-.006 1.453-.07 2.17-.19zM440.06 10.26l-7.22 20.11c-1.047 2.9-2.713 4.35-5 4.35-.817-.012-1.628-.136-2.41-.37v-2.19c.612.152 1.24.236 1.87.25.816.027 1.613-.247 2.24-.77.6-.513 1.197-1.76 1.79-3.74l-6.23-17.63h2.84l4.83 13.53 4.92-13.53 2.37-.01zM116 43.11h7.42V84.2h22v6.51H116M161.61 43.11H169v47.6h-7.35M187.86 43.11h17.29c8.89 0 13.44 5.39 13.44 12 .25 4.183-2.42 7.985-6.44 9.17 6.37 1.47 9.73 6 9.73 12.11 0 8.19-5.46 14.35-15.47 14.35h-18.55V43.11zm16.94 18.55c4.41 0 6.51-2.45 6.51-6s-2-6-6.65-6h-9.38v12h9.52zM206 84.2c5.74 0 8.47-3.36 8.47-8.12s-2.94-8.12-8.82-8.12h-10.37V84.2H206zM270.68 90.71h-8.54l-8.54-12.53c-1.328.163-2.663.257-4 .28h-4.48v12.25h-7.42v-47.6h11.9c13.16 0 20.51 6.86 20.51 17.78 0 7.35-3.29 12.39-9.52 15.12l10.09 14.7zm-21.35-18.62c9.45 0 13.23-4.13 13.23-11.2 0-7.07-3.92-11.27-13.23-11.27h-4.2v22.47h4.2zM303.57 42.62h.84l20.86 48.09h-7.7L314.85 84h-21.78l-2.73 6.72h-7.14l20.37-48.1zm8.61 35.14l-6-14.84c-.915-2.314-1.71-4.674-2.38-7.07-.633 2.4-1.404 4.76-2.31 7.07l-6 14.84h16.69zM373.22 90.71h-8.54l-8.54-12.53c-1.328.163-2.663.257-4 .28h-4.48v12.25h-7.42v-47.6h11.9c13.16 0 20.51 6.86 20.51 17.78 0 7.35-3.29 12.39-9.52 15.12l10.09 14.7zm-21.35-18.62c9.45 0 13.23-4.13 13.23-11.2 0-7.07-3.92-11.27-13.23-11.27h-4.2v22.47h4.2zM402.41 75.66l-18.06-32.55h8.19l10.78 19.6c1.123 2.213 2.083 4.506 2.87 6.86.82-2.34 1.78-4.632 2.87-6.86l10.43-19.6h7.63l-17.29 32.13v15.47h-7.42V75.66z" fill="#000"/></g></svg>